<?xml version="1.0" standalone="no"?>
<!DOCTYPE svg PUBLIC "-//W3C//DTD SVG 20010904//EN"
 "http://www.w3.org/TR/2001/REC-SVG-20010904/DTD/svg10.dtd">
<svg version="1.0" xmlns="http://www.w3.org/2000/svg"
 width="48.000000pt" height="48.000000pt" viewBox="0 0 48.000000 48.000000"
 preserveAspectRatio="xMidYMid meet">

<g transform="translate(0.000000,48.000000) scale(0.100000,-0.100000)"
fill="#000000" stroke="none">
<path d="M32 442 c-9 -6 -12 -51 -10 -183 l3 -174 35 -3 c19 -1 90 -19 156
-39 126 -37 154 -38 154 -4 0 11 13 57 29 103 15 46 36 109 46 142 21 72 17
76 -80 105 -38 12 -77 30 -87 41 -16 18 -32 20 -126 20 -59 0 -113 -4 -120 -8z
m235 -13 c28 -24 9 -29 -112 -29 -97 0 -125 3 -125 13 0 8 3 16 6 20 11 11
217 7 231 -4z m116 -58 c61 -21 82 -40 59 -55 -4 -2 -40 5 -80 17 -64 19 -72
24 -72 45 0 15 5 22 13 20 6 -3 42 -15 80 -27z m-181 -41 c15 0 19 -5 15 -19
-2 -10 0 -25 4 -34 6 -10 5 -18 -1 -22 -6 -3 -7 -18 -4 -32 5 -19 4 -24 -5
-18 -7 4 -24 2 -37 -5 -18 -10 -27 -10 -37 -1 -8 6 -21 9 -30 6 -11 -5 -16 3
-19 31 -5 45 11 84 34 84 9 0 20 5 23 11 4 6 14 8 22 5 8 -3 24 -6 35 -6z
m153 -49 c3 -5 1 -12 -5 -16 -5 -3 -10 1 -10 9 0 18 6 21 15 7z m-1 -123 c-3
-4 -11 -5 -20 -1 -11 4 -12 8 -3 20 10 11 14 11 20 1 4 -6 6 -15 3 -20z m-74
-35 c-1 -29 -20 -34 -131 -31 -99 3 -114 5 -117 21 -3 15 8 17 122 17 69 0
126 -3 126 -7z m35 -55 c43 -12 59 -33 32 -44 -8 -3 -54 8 -103 25 l-89 29 57
1 c32 1 78 -4 103 -11z"/>
<path d="M122 298 c-30 -30 -3 -82 40 -76 29 4 47 50 28 72 -15 19 -51 21 -68
4z m48 -8 c20 -11 17 -38 -4 -52 -17 -12 -25 -9 -36 13 -9 15 -8 24 1 35 14
17 15 17 39 4z"/>
</g>
</svg>
